<?xml version="1.0" encoding="UTF-8"?>
<svg width="48" height="48" viewBox="0 0 48 48" fill="none" xmlns="http://www.w3.org/2000/svg">
  <rect width="48" height="48" fill="#282828"/>
  <path d="M24 16C20.6863 16 18 18.6863 18 22C18 25.3137 20.6863 28 24 28C27.3137 28 30 25.3137 30 22C30 18.6863 27.3137 16 24 16ZM24 26C21.7909 26 20 24.2091 20 22C20 19.7909 21.7909 18 24 18C26.2091 18 28 19.7909 28 22C28 24.2091 26.2091 26 24 26Z" fill="#B3B3B3"/>
  <path d="M32 32C32 28.6863 28.4183 26 24 26C19.5817 26 16 28.6863 16 32H18C18 29.7909 20.6863 28 24 28C27.3137 28 30 29.7909 30 32H32Z" fill="#B3B3B3"/>
</svg> 